<?xml version="1.0" encoding="UTF-8"?>
<svg id="Layer_1" data-name="Layer 1" xmlns="http://www.w3.org/2000/svg" viewBox="0 0 576 576">
  <defs>
    <style>
      .cls-1 {
        fill: #e2e8f0;
      }

      .cls-2 {
        stroke: #e2e8f0;
      }

      .cls-2, .cls-3 {
        fill: none;
      }

      .cls-2, .cls-3, .cls-4, .cls-5 {
        stroke-linecap: round;
        stroke-linejoin: round;
      }

      .cls-3, .cls-4, .cls-5 {
        stroke: #94a3b8;
      }

      .cls-4 {
        fill: #fff;
      }

      .cls-5 {
        fill: #ece8e5;
      }

      .cls-6 {
        fill: #94a3b8;
      }

      .cls-7 {
        fill: #cbd5e1;
      }
    </style>
  </defs>
  <g>
    <g>
      <path class="cls-1" d="m146.49,336.39s73.07,32.33,129.06-53.7c56-86.03,47.8-141.84,114.43-145.23,80.75-4.11,90.66,59.71,90.66,59.71,0,0,50.83-4.64,67.78,49.06,18.2,57.67-39.4,90.81-39.4,90.81,0,0,39.82,83.57-85.03,144.65,0,0-42.68,49.06-110.09,25.31-67.41-23.74-72.25,35.71-137.76,8.6-65.51-27.12-41.88-82.35-21.4-114.07,20.48-31.72-8.24-65.13-8.24-65.13Z"/>
      <circle class="cls-1" cx="301.41" cy="238.61" r="44.36" transform="translate(-59.68 106.71) rotate(-18.3)"/>
    </g>
    <g>
      <path class="cls-2" d="m137.84,330.07s75.53,33.42,133.41-55.51c57.88-88.93,49.41-146.62,118.28-150.13,83.47-4.24,93.71,61.72,93.71,61.72,0,0,52.54-4.8,70.06,50.71,18.81,59.61-40.73,93.87-40.73,93.87,0,0,41.16,86.38-87.9,149.52,0,0-44.12,50.71-113.8,26.16-69.68-24.54-74.69,36.92-142.4,8.89-67.72-28.03-43.29-85.13-22.12-117.91,21.17-32.78-8.52-67.33-8.52-67.33Z"/>
      <circle class="cls-2" cx="297.98" cy="229" r="45.85" transform="translate(-69.63 150.93) rotate(-25.55)"/>
    </g>
    <g>
      <path class="cls-2" d="m144.52,348.44s75.53,33.42,133.41-55.51c57.88-88.93,49.41-146.62,118.28-150.13,83.47-4.24,93.71,61.72,93.71,61.72,0,0,52.54-4.8,70.06,50.71,18.81,59.61-40.73,93.87-40.73,93.87,0,0,41.16,86.38-87.9,149.52,0,0-44.12,50.71-113.8,26.16-69.68-24.54-74.69,36.92-142.4,8.89-67.72-28.03-43.29-85.13-22.12-117.91,21.17-32.78-8.52-67.33-8.52-67.33Z"/>
      <circle class="cls-2" cx="304.66" cy="247.36" r="45.85" transform="translate(-69.55 129.15) rotate(-21.54)"/>
    </g>
    <g>
      <path class="cls-2" d="m117.29,310.97s75.53,33.42,133.41-55.51c57.88-88.93,49.41-146.62,118.28-150.13,83.47-4.24,93.71,61.72,93.71,61.72,0,0,52.55-4.8,70.06,50.71,18.81,59.61-40.73,93.87-40.73,93.87,0,0,41.16,86.38-87.9,149.52,0,0-44.12,50.71-113.8,26.16-69.68-24.54-74.69,36.92-142.4,8.89-67.72-28.03-43.29-85.13-22.12-117.91,21.17-32.78-8.52-67.33-8.52-67.33Z"/>
      <circle class="cls-2" cx="277.43" cy="209.89" r="45.85" transform="translate(-57.69 116.54) rotate(-21.54)"/>
    </g>
    <g>
      <path class="cls-2" d="m117.94,336.99s75.53,33.42,133.41-55.51c57.88-88.93,49.41-146.62,118.28-150.13,83.47-4.24,93.71,61.72,93.71,61.72,0,0,52.54-4.8,70.06,50.71,18.81,59.61-40.73,93.87-40.73,93.87,0,0,41.16,86.38-87.9,149.52,0,0-44.12,50.71-113.8,26.16-69.68-24.54-74.69,36.92-142.4,8.89-67.72-28.03-43.29-85.13-22.12-117.91,21.17-32.78-8.52-67.33-8.52-67.33Z"/>
      <circle class="cls-2" cx="278.08" cy="235.91" r="45.85" transform="translate(-67.2 118.59) rotate(-21.54)"/>
    </g>
  </g>
  <path class="cls-6" d="m405.04,274.64c-.65.12-1.31.23-1.99.33,8.33-55.33-59.58-64.57-59.58-64.57,0,0,51.41-21.78,79.43,15.62,10.74,19.16,2.28,44.81-17.87,48.62Z"/>
  <path class="cls-4" d="m427.1,238.25s-9.59-21.38-35.88-18.99c-16.64,1.51-31.01,12.09-38.46,27.04-31.98,64.16-6.89,215.61-100.03,235.9-14.69,3.2-44.24-2.91-44.24-2.91-91.18-31.29-180.4-81.4-180.4-81.4,0,0,55.37,10.25,105.87-148.08,50.5-158.33,285.35-79.94,293.14-11.56Z"/>
  <path class="cls-5" d="m266.5,441s.47,11.61-12.73,16.85c-11.91-16.17-27.36-11.11-27.36-11.11,0,0,35.54-26.24,40.09-5.74Z"/>
  <path class="cls-6" d="m266.5,441s-5.93-16.39-27.53,3.17c-3.44,3.12-5.5,7.33-6.56,11.87-1.39,5.97-.74,12.32,2.39,17.59,8.2,13.83,25.4,6.6,25.4,6.6,0,0-43.8,21.95-224.08-60.36-4.36-1.99-8.49-4.5-12.12-7.64-26.89-23.3-1.85-53.56,20.64-46.25,24.4,7.93,61.64,26.67,125.89,42.02,64.25,15.35,98.35,21.96,95.98,33Z"/>
  <g>
    <path class="cls-7" d="m70.17,40.46c-3.03,1.73-5.66,3.66-7.31,5.73l29.79,19.2-22-8.04,33.5,25.3-28.28-10.33s24.32,27.67,21.96,53.63c-2.36,25.96,17.98,54.77,38.91,75.48l-41.98-24.84s1.23,68.13,68.29,79.57l-26.11-.04s12.19,15.37,45.04,16.46l-24.88,6.35,16.84,15.65,16.58.12-11.83,6.37s21.43,32.34,43.84,35.99c23.36-54.18,7.55-118.14,7.55-118.14l-18.13,17.12,16.06-30.94s-8.32-42.22-38.92-94.96c-1.39,36.3-7.9,54.11-7.9,54.11,0,0,3.89-49.64-7.13-71.47-15.41-28.38-44.67-45.35-63.81-53.92-12.89-5.77-27.84-5.41-40.1,1.61Z"/>
    <path class="cls-6" d="m230.14,378.02s3.29-151.95-119.08-314.21c112.95,158.82,104.96,300.92,104.96,300.92l14.12,13.29Z"/>
    <path class="cls-3" d="m89.51,92.65s19.86,6.42,38.57,16.97"/>
    <path class="cls-3" d="m94.33,103.46s17.11,5.79,29.06,13.51"/>
    <path class="cls-3" d="m160.2,73.48s.5,15.78-4.16,38.61"/>
    <path class="cls-3" d="m212.57,157.63s-4.43,21-14.06,38.48"/>
    <path class="cls-3" d="m208.47,148.06s-3.82,15.39-10.93,29.91"/>
    <path class="cls-3" d="m106.55,217.5s16.27,16.74,53.29,26.58"/>
    <line class="cls-3" x1="184.87" y1="309.3" x2="196.73" y2="303.88"/>
    <path class="cls-3" d="m234.96,255.11s-1.1,11.32-9.65,23.3"/>
    <path class="cls-3" d="m102.06,152.01s18.42,14.25,52.47,26.69"/>
  </g>
</svg>