<?xml version="1.0" encoding="UTF-8"?>
<svg id="Layer_1" data-name="Layer 1" xmlns="http://www.w3.org/2000/svg" xmlns:xlink="http://www.w3.org/1999/xlink" viewBox="0 0 735.73 576">
  <defs>
    <style>
      .cls-1 {
        opacity: .18;
      }

      .cls-2 {
        stroke-miterlimit: 10;
      }

      .cls-2, .cls-3, .cls-4, .cls-5, .cls-6, .cls-7, .cls-8, .cls-9 {
        stroke-width: 1.16px;
      }

      .cls-2, .cls-3, .cls-4, .cls-5, .cls-7, .cls-8 {
        stroke: #1a2e35;
      }

      .cls-2, .cls-5, .cls-6, .cls-9 {
        fill: none;
      }

      .cls-10, .cls-11, .cls-7 {
        fill: #fff;
      }

      .cls-12 {
        fill: #af0;
      }

      .cls-3, .cls-13 {
        fill: #facc15;
      }

      .cls-3, .cls-4, .cls-5, .cls-6, .cls-7, .cls-8, .cls-9 {
        stroke-linecap: round;
        stroke-linejoin: round;
      }

      .cls-14 {
        fill: #854d0e;
      }

      .cls-15 {
        clip-path: url(#clippath-2);
      }

      .cls-11 {
        opacity: .5;
      }

      .cls-16 {
        clip-path: url(#clippath-1);
      }

      .cls-17 {
        clip-path: url(#clippath-4);
      }

      .cls-18 {
        opacity: .3;
      }

      .cls-4, .cls-19 {
        fill: #475569;
      }

      .cls-20 {
        clip-path: url(#clippath);
      }

      .cls-21 {
        clip-path: url(#clippath-3);
      }

      .cls-6 {
        stroke: #fff;
      }

      .cls-22, .cls-8 {
        fill: #757575;
      }

      .cls-23 {
        fill: #1a2e35;
      }

      .cls-24 {
        fill: #f1f5f9;
      }

      .cls-9 {
        stroke: #475569;
      }
    </style>
    <clipPath id="clippath">
      <path class="cls-3" d="m159.53,505.37v31.12c0,2.5,1.39,4.79,3.61,5.94l50.02,25.83c1.81.93,3.94.99,5.8.16l73.68-28.09c2.4-1.08,3.95-3.46,3.95-6.1v-37.66l-84.27,25.47-52.79-16.67Z"/>
    </clipPath>
    <clipPath id="clippath-1">
      <path class="cls-7" d="m236.51,452.84l-80.83,25.9c-1.3.42-2.18,1.62-2.18,2.99v23.05c0,1.21.7,2.31,1.79,2.83l56.28,26.82c.77.37,1.65.4,2.45.11l84.69-31.65c1.23-.46,2.04-1.63,2.04-2.94l.15-21.62c0-1.47-1.03-2.75-2.47-3.06l-60.3-22.51c-.54-.12-1.1-.09-1.63.08Z"/>
    </clipPath>
    <clipPath id="clippath-2">
      <path class="cls-3" d="m174.81,347.94s-3.24,18.98-.93,28.25c2.32,9.26,6.48,14.35,6.48,14.35,0,0-11.58,17.13-9.26,31.49,2.32,14.35,8.33,16.21,8.33,16.21,0,0-5.09,26.39,4.17,35.65,9.26,9.26,29.63,19.45,52.32,15.28,22.69-4.17,37.97-5.09,42.6-12.97,4.63-7.87,1.85-42.6,1.85-42.6,0,0-.93-38.43-1.85-62.05-.93-23.62-4.17-42.6-15.28-51.86-11.11-9.26-60.2,5.09-75.01,14.82-14.82,9.72-13.43,13.43-13.43,13.43Z"/>
    </clipPath>
    <clipPath id="clippath-3">
      <path class="cls-8" d="m271.58,325.25s-8.8-13.43-20.84-20.84c-12.04-7.41-43.06-12.97-55.56-15.28-12.5-2.32-25.93-1.39-29.63,12.5-3.7,13.89-3.24,37.04.46,47.23,3.7,10.19,18.98,16.21,31.02,9.26,12.04-6.95,45.38-33.8,56.95-35.19,11.58-1.39,16.67,7.41,17.6,2.32Z"/>
    </clipPath>
    <clipPath id="clippath-4">
      <path class="cls-3" d="m252.13,325.25c10.19-3.7,23.15-1.39,27.78,11.58,4.63,12.97,8.8,50.93,8.8,50.93,0,0,11.58,1.39,16.21,6.48,4.63,5.09,6.95,18.06,6.02,24.54s-17.13,18.52-35.65,18.98c-18.52.46-31.95-8.33-38.43-31.95-6.48-23.62-3.91-59.65-3.91-59.65,0,0,2.35-10.59,5.88-12.95"/>
    </clipPath>
  </defs>
  <g>
    <path class="cls-12" d="m101.53,303.55s3.25,100.82,87.41,168.02c84.16,67.2,200.78,72.01,295.19,78.39,94.41,6.38,166.93-47.06,177.86-127.85,10.93-80.79-61.21-104.51-100.35-196.47-39.14-91.97-35.66-122.2-118.48-178.76C360.35-9.69,230.79,25.04,162.86,121.94c-67.93,96.9-61.33,181.6-61.33,181.6Z"/>
    <path class="cls-24" d="m101.53,303.55s3.25,100.82,87.41,168.02c84.16,67.2,200.78,72.01,295.19,78.39,94.41,6.38,166.93-47.06,177.86-127.85,10.93-80.79-61.21-104.51-100.35-196.47-39.14-91.97-35.66-122.2-118.48-178.76C360.35-9.69,230.79,25.04,162.86,121.94c-67.93,96.9-61.33,181.6-61.33,181.6Z"/>
  </g>
  <g>
    <g>
      <ellipse class="cls-3" cx="512.13" cy="479.9" rx="99.76" ry="29.6"/>
      <path class="cls-7" d="m512.13,463.92c47.2,0,86.71,9.73,97.08,22.79,1.74-2.19,2.68-4.46,2.68-6.81,0-16.35-44.66-29.6-99.76-29.6s-99.76,13.25-99.76,29.6c0,2.34.95,4.62,2.68,6.81,10.37-13.07,49.88-22.79,97.08-22.79Z"/>
    </g>
    <g>
      <path class="cls-6" d="m498.51,505.78c-33.32-1.51-58.47-8.33-58.47-16.52,0-.86.28-1.7.81-2.52"/>
      <path class="cls-6" d="m575.85,481.14c5.71,2.41,8.96,5.17,8.96,8.12,0,9.3-32.41,16.83-72.38,16.83-.58,0-1.15,0-1.72,0"/>
      <path class="cls-6" d="m449.79,480.82c12.53-5.02,35.89-8.39,62.64-8.39,17.18,0,32.96,1.39,45.37,3.72"/>
      <path class="cls-6" d="m497.56,495.04c-8.44-1.18-14.09-3.32-14.09-5.78,0-3.72,12.96-6.73,28.95-6.73s28.95,3.01,28.95,6.73c0,3.19-9.54,5.86-22.34,6.56"/>
    </g>
  </g>
  <g>
    <path class="cls-9" d="m111.5,360.93c43.5-12.36,135.05-36.76,185.57-38.59,67.87-2.47,182.64,46.89,254.21,55.53,71.57,8.64,119.7,6.17,119.7,6.17"/>
    <path class="cls-9" d="m87.29,367.99s3.76-1.14,10.35-3.07"/>
    <path class="cls-9" d="m651.65,291.08c-17.52-3.84-45.2-8.27-76.4-7.23-53.09,1.78-110.48,8.81-181.56,17.96-71.08,9.15-172.19-41.44-240.97-22.67-68.78,18.77-63.58,24.43-63.58,24.43"/>
    <path class="cls-9" d="m671.22,296.16s-2.68-.88-7.53-2.17"/>
  </g>
  <g>
    <g>
      <path class="cls-9" d="m543.85,165.67c-1.53-6.26-7.16-10.9-13.89-10.9s-12.35,4.65-13.89,10.9h27.77Z"/>
      <path class="cls-9" d="m684.17,165.67c-1.7-7.17-7.74-12.66-15.21-13.51.46-2.47.71-5.02.71-7.62,0-22.96-18.61-41.57-41.57-41.57-20.46,0-37.46,14.79-40.92,34.26-4.51-3.52-10.17-5.64-16.33-5.64-14.68,0-26.58,11.9-26.58,26.58,0,2.61.39,5.12,1.09,7.5h138.8Z"/>
    </g>
    <g>
      <path class="cls-9" d="m296.7,199.01c-.78-3.18-3.63-5.53-7.05-5.53s-6.27,2.36-7.05,5.53h14.1Z"/>
      <path class="cls-9" d="m367.93,199.01c-.86-3.64-3.93-6.43-7.72-6.86.23-1.25.36-2.55.36-3.87,0-11.65-9.45-21.1-21.1-21.1-10.39,0-19.02,7.51-20.77,17.39-2.29-1.79-5.16-2.86-8.29-2.86-7.45,0-13.49,6.04-13.49,13.49,0,1.32.2,2.6.55,3.81h70.46Z"/>
    </g>
    <g>
      <path class="cls-9" d="m360.76,221.31c-.49-2-2.29-3.49-4.45-3.49s-3.96,1.49-4.45,3.49h8.9Z"/>
      <path class="cls-9" d="m405.72,221.31c-.54-2.3-2.48-4.06-4.87-4.33.15-.79.23-1.61.23-2.44,0-7.36-5.96-13.32-13.32-13.32-6.56,0-12,4.74-13.11,10.98-1.44-1.13-3.26-1.81-5.23-1.81-4.7,0-8.52,3.81-8.52,8.52,0,.83.13,1.64.35,2.4h44.47Z"/>
    </g>
  </g>
  <g>
    <g>
      <path class="cls-19" d="m265.05,380.48c-.45,0-.91-.12-1.33-.36-1.27-.75-1.7-2.4-.97-3.7.68-1.18,171.51-187.47,249.67-255.79.56-.49,1.4-.42,1.88.14.48.57.42,1.42-.14,1.91-77.83,68.02-246.13,255.27-246.8,256.45-.49.86-1.39,1.35-2.3,1.35Z"/>
      <g>
        <path class="cls-3" d="m274.47,343.39s8.47-9.04,13.56-9.04,14.68,8.47,14.12,12.99c-.56,4.52-9.04.56-9.04.56,0,0-7.91,10.73-15.81,9.04-7.91-1.69-2.82-13.56-2.82-13.56Z"/>
        <path class="cls-3" d="m293.11,347.91s5.18,3.58,5.64,6.11c.46,2.53-5.75,9.66-12.65,11.27-6.9,1.61-10.58-2.3-8.51-5.98,2.07-3.68,10.33-11.08,15.52-11.41Z"/>
      </g>
    </g>
    <path class="cls-9" d="m505.94,315.17v-186.93s-3.77,13.53-3.77,14.51"/>
    <rect class="cls-3" x="440.55" y="325.03" width="143.34" height="114.85"/>
    <g>
      <path class="cls-19" d="m507.98,324.54v-6.57c0-.91-.74-1.65-1.65-1.65s-1.65.74-1.65,1.65v6.57h3.3Z"/>
      <path class="cls-19" d="m521.19,308.54l-.03.33c-.29-.49-.79-.83-1.4-.83-.91,0-1.65.74-1.65,1.65v17.57c0,2.79-2.27,5.07-5.06,5.07-.72,0-1.4-.15-2.02-.43-.44.64-.87,1.87.42,3.56.52.1,1.05.16,1.59.16,4.61,0,8.36-3.75,8.36-8.36v-8.14h3.78l-4-10.57Z"/>
    </g>
    <path class="cls-9" d="m506.08,126.49s2.93-10.41.33-9.43c-2.6.98-.33,9.43-.33,9.43Z"/>
    <path class="cls-9" d="m506.08,126.49s-11.06-3.9-10.08-.33c.98,3.58,10.08.33,10.08.33Z"/>
  </g>
  <g>
    <g>
      <path class="cls-4" d="m267.72,217.17s-13.64-7.64-40.39-3.82c-26.74,3.82-31.85,25.88-27.48,48.81,4.37,22.92,29.66,42.34,33.48,40.7,3.82-1.64-1.09-52.94,7.64-62.76,8.73-9.82,37.11-8.19,38.75-15.83,1.64-7.64-12.01-7.09-12.01-7.09Z"/>
      <path class="cls-8" d="m220.18,230.79l2.78,18.06s-17.13,46.77-14.35,53.25c2.78,6.48,28.71,8.8,28.71,8.8,0,0,42.14,5.09,54.64,0,12.5-5.09,6.02-19.91,4.63-24.08-1.39-4.17-9.26-37.51-9.26-37.51,0,0,2.78-7.87,2.78-12.04s-.46-15.74-2.32-18.52c-1.85-2.78-34.26-6.02-48.62-3.7-14.35,2.32-20.84,6.02-18.98,15.74Z"/>
      <g>
        <path class="cls-7" d="m227.59,251.62s-.46,40.28,1.85,48.16c2.32,7.87,11.58,17.13,31.02,14.82,19.45-2.32,21.3-20.84,21.3-20.84l-1.39-43.06-52.79.93Z"/>
        <circle class="cls-2" cx="257.46" cy="280.56" r="3.47"/>
        <path class="cls-23" d="m260.47,295.15c0,1.28-1.04,2.32-2.32,2.32s-2.32-1.04-2.32-2.32,1.04-2.32,2.32-2.32,2.32,1.04,2.32,2.32Z"/>
        <path class="cls-23" d="m246.48,265.72c1.48,1.59,2,3.52,1.16,4.3-.84.78-2.73.13-4.21-1.46-1.48-1.59-2-3.52-1.16-4.3s2.73-.13,4.21,1.46Z"/>
        <path class="cls-23" d="m265.29,265.72c-1.48,1.59-2,3.52-1.16,4.3.84.78,2.73.13,4.21-1.46,1.48-1.59,2-3.52,1.16-4.3-.84-.78-2.73-.13-4.21,1.46Z"/>
        <path class="cls-5" d="m236.59,260.25s3.05-5.08,9.66-3.56"/>
        <path class="cls-5" d="m264.56,257.2s6.61-2.03,8.64,3.56"/>
      </g>
    </g>
    <g>
      <path class="cls-4" d="m286.86,515.6s7.28-4.37,11.31-6.09c.43-.18.82-.33,1.16-.45,3.56-1.19,13.66-.59,23.17-6.53,9.5-5.94,4.75-13.07-2.38-14.85s-14.85-4.16-14.85-4.16l-1.78-27.92s-21.38,5.94-28.51,8.91c-7.13,2.97-2.97,45.14-2.38,48.71.59,3.56.59,5.94,14.26,2.38Z"/>
      <path class="cls-7" d="m310.62,502.53c-12.47,2.38-12.47,4.75-26.14,7.13-5.8,1.01-9.66,1.16-12.19,1,.14,1.26.25,2.17.31,2.57.59,3.56.59,5.94,14.26,2.38,0,0,7.28-4.37,11.31-6.09.43-.18.82-.33,1.16-.45,3.56-1.19,13.66-.59,23.17-6.53,3.05-1.9,4.61-3.93,5.12-5.86-4.42,2.13-10.54,4.63-17,5.86Z"/>
    </g>
    <g>
      <g>
        <path class="cls-4" d="m315.57,487.31s-.46,32.41-1.39,39.36c-.93,6.95.46,15.74,11.11,15.74s31.49-6.95,38.9-8.33c7.41-1.39,19.45-4.63,24.54-16.21,5.09-11.58-25.93-10.19-25.93-10.19l1.85-23.62s-31.95,6.48-49.08,3.24Z"/>
        <path class="cls-7" d="m388.73,517.87c.61-1.39.69-2.59.38-3.63-2.31,3.17-6.2,7.06-12.42,9.65-11.11,4.63-31.95,9.72-47.69,12.04-7.2,1.06-11.76-.11-14.62-1.69,1.02,4.48,4.02,8.17,10.91,8.17,10.65,0,31.49-6.95,38.9-8.33,7.41-1.39,19.45-4.63,24.54-16.21Z"/>
        <path class="cls-6" d="m362.8,507.69s2.32,7.87-4.17,12.97"/>
      </g>
      <path class="cls-8" d="m312.33,470.18s-.72,14.09.07,16.91c2.97,10.69,3.91,8.19,26.14,7.72,22.23-.46,31.21-9.35,33.53-14.91,2.32-5.56,0-17.6-.93-21.76-.93-4.17-8.33-5.56-11.11-5.09-2.78.46-46.3,12.5-47.69,17.13Z"/>
    </g>
    <g>
      <g>
        <path class="cls-13" d="m159.53,505.37v31.12c0,2.5,1.39,4.79,3.61,5.94l50.02,25.83c1.81.93,3.94.99,5.8.16l73.68-28.09c2.4-1.08,3.95-3.46,3.95-6.1v-37.66l-84.27,25.47-52.79-16.67Z"/>
        <g class="cls-20">
          <path class="cls-1" d="m216.02,520.92l-3.7,1.12-52.79-16.67v31.12c0,2.5,1.39,4.79,3.61,5.94l50.02,25.83c.9.46,1.88.71,2.86.74v-48.07Z"/>
        </g>
        <path class="cls-5" d="m159.53,505.37v31.12c0,2.5,1.39,4.79,3.61,5.94l50.02,25.83c1.81.93,3.94.99,5.8.16l73.68-28.09c2.4-1.08,3.95-3.46,3.95-6.1v-37.66l-84.27,25.47-52.79-16.67Z"/>
      </g>
      <g>
        <path class="cls-10" d="m236.51,452.84l-80.83,25.9c-1.3.42-2.18,1.62-2.18,2.99v23.05c0,1.21.7,2.31,1.79,2.83l56.28,26.82c.77.37,1.65.4,2.45.11l84.69-31.65c1.23-.46,2.04-1.63,2.04-2.94l.15-21.62c0-1.47-1.03-2.75-2.47-3.06l-60.3-22.51c-.54-.12-1.1-.09-1.63.08Z"/>
        <g class="cls-16">
          <path class="cls-13" d="m211.55,534.42h.03c.77.38,1.65.42,2.45.12l84.69-31.65c1.23-.46,2.04-1.63,2.04-2.94l.15-21.62c0-.76-.28-1.46-.74-2.01l-87.39,32.29-1.23,25.81Z"/>
          <path class="cls-11" d="m211.55,534.42h.03c.77.38,1.65.42,2.45.12l84.69-31.65c1.23-.46,2.04-1.63,2.04-2.94l.15-21.62c0-.76-.28-1.46-.74-2.01l-87.39,32.29-1.23,25.81Z"/>
          <path class="cls-13" d="m153.51,481.73v23.05c0,1.21.7,2.31,1.79,2.83l56.28,26.82c.38.18.79.28,1.2.3v-26.12l-59.18-27.42c-.03.18-.09.35-.09.53Z"/>
        </g>
        <path class="cls-5" d="m236.51,452.84l-80.83,25.9c-1.3.42-2.18,1.62-2.18,2.99v23.05c0,1.21.7,2.31,1.79,2.83l56.28,26.82c.77.37,1.65.4,2.45.11l84.69-31.65c1.23-.46,2.04-1.63,2.04-2.94l.15-21.62c0-1.47-1.03-2.75-2.47-3.06l-60.3-22.51c-.54-.12-1.1-.09-1.63.08Z"/>
      </g>
    </g>
    <g>
      <path class="cls-4" d="m347.52,410.45s10.65,5.09,16.21,15.28c5.56,10.19,1.39,29.63-1.85,35.65-3.24,6.02-25,8.8-32.41,8.8s-8.8-.93-8.8-.93c0,0-23.62,4.63-38.43,7.41-14.82,2.78-11.11-31.95-6.48-47.69,4.63-15.74,30.56-23.62,41.21-23.62s30.56,5.09,30.56,5.09Z"/>
      <path class="cls-6" d="m320.66,469.25s19.91-6.95,28.25-24.54"/>
      <path class="cls-6" d="m339.65,459.07s8.8-3.24,17.13-11.58"/>
    </g>
    <path class="cls-8" d="m292.88,425.73s5.56,29.17,2.78,41.21c-2.78,12.04-18.98,13.89-22.69,12.5-3.7-1.39-1.85-30.1-1.85-44.45s14.35-13.43,21.76-9.26Z"/>
    <g>
      <g>
        <path class="cls-13" d="m174.81,347.94s-3.24,18.98-.93,28.25c2.32,9.26,6.48,14.35,6.48,14.35,0,0-11.58,17.13-9.26,31.49,2.32,14.35,8.33,16.21,8.33,16.21,0,0-5.09,26.39,4.17,35.65,9.26,9.26,29.63,19.45,52.32,15.28,22.69-4.17,37.97-5.09,42.6-12.97,4.63-7.87,1.85-42.6,1.85-42.6,0,0-.93-38.43-1.85-62.05-.93-23.62-4.17-42.6-15.28-51.86-11.11-9.26-60.2,5.09-75.01,14.82-14.82,9.72-13.43,13.43-13.43,13.43Z"/>
        <g class="cls-15">
          <path class="cls-18" d="m178.1,347.94s-3.24,18.98-.93,28.25c2.32,9.26,6.48,14.35,6.48,14.35,0,0-11.58,17.13-9.26,31.49,2.32,14.35,8.33,16.21,8.33,16.21,0,0-5.09,26.39,4.17,35.65,9.26,9.26,29.63,19.45,52.32,15.28,22.69-4.17,37.97-5.09,42.6-12.97,4.63-7.87,1.85-42.6,1.85-42.6,0,0-.93-38.43-1.85-62.05-.93-23.62-4.17-42.6-15.28-51.86-11.11-9.26-60.2,5.09-75.01,14.82-14.82,9.72-13.43,13.43-13.43,13.43Z"/>
        </g>
        <path class="cls-5" d="m174.81,347.94s-3.24,18.98-.93,28.25c2.32,9.26,6.48,14.35,6.48,14.35,0,0-11.58,17.13-9.26,31.49,2.32,14.35,8.33,16.21,8.33,16.21,0,0-5.09,26.39,4.17,35.65,9.26,9.26,29.63,19.45,52.32,15.28,22.69-4.17,37.97-5.09,42.6-12.97,4.63-7.87,1.85-42.6,1.85-42.6,0,0-.93-38.43-1.85-62.05-.93-23.62-4.17-42.6-15.28-51.86-11.11-9.26-60.2,5.09-75.01,14.82-14.82,9.72-13.43,13.43-13.43,13.43Z"/>
      </g>
      <path class="cls-5" d="m180.36,390.54s20.84,16.21,49.55,6.95"/>
      <path class="cls-5" d="m179.44,438.23s23.62,23.15,62.51.93"/>
    </g>
    <g>
      <path class="cls-22" d="m271.58,325.25s-8.8-13.43-20.84-20.84c-12.04-7.41-43.06-12.97-55.56-15.28-12.5-2.32-25.93-1.39-29.63,12.5-3.7,13.89-3.24,37.04.46,47.23,3.7,10.19,18.98,16.21,31.02,9.26,12.04-6.95,45.38-33.8,56.95-35.19,11.58-1.39,16.67,7.41,17.6,2.32Z"/>
      <g class="cls-21">
        <path class="cls-18" d="m245.89,322.63c7.06-2.94-10.59,2.35-11.77.59-1.18-1.77,12.36-10.59,15.3-11.77,2.94-1.18-17.07,2.94-16.48,0,.59-2.94,19.42-3.53,6.47-6.47-12.95-2.94-55.32-10.59-63.56-13.54-.82-.29-1.4-.59-1.78-.9-3.95,2.02-7.04,5.49-8.53,11.09-3.7,13.89-3.24,37.04.46,47.23,3.22,8.87,15.22,14.57,26.21,11.32,5.09-4.12,9.8-9.58,17.77-14.6,15.89-10,28.84-20.01,35.9-22.95Z"/>
      </g>
      <path class="cls-5" d="m271.58,325.25s-8.8-13.43-20.84-20.84c-12.04-7.41-43.06-12.97-55.56-15.28-12.5-2.32-25.93-1.39-29.63,12.5-3.7,13.89-3.24,37.04.46,47.23,3.7,10.19,18.98,16.21,31.02,9.26,12.04-6.95,45.38-33.8,56.95-35.19,11.58-1.39,16.67,7.41,17.6,2.32Z"/>
    </g>
    <g>
      <g>
        <path class="cls-3" d="m321.59,388.22s10.65,1.39,17.6,4.17c6.95,2.78,11.58,19.91,8.8,22.23-2.78,2.32-8.33-.46-8.33-.46,0,0-7.87,2.78-13.43,3.24-5.56.46-11.58-25.93-4.63-29.17Z"/>
        <path class="cls-8" d="m286.4,386.83s1.85,0,12.04-4.63c10.19-4.63,18.52-4.63,25,5.56,6.48,10.19,9.26,22.69,5.56,30.1-3.7,7.41-17.6,12.5-25,12.5s-8.33-9.72-8.33-9.72c0,0-.93-15.28-5.56-20.84-4.63-5.56-5.56-11.58-3.7-12.97Z"/>
        <g>
          <path class="cls-13" d="m252.13,325.25c10.19-3.7,23.15-1.39,27.78,11.58,4.63,12.97,8.8,50.93,8.8,50.93,0,0,11.58,1.39,16.21,6.48,4.63,5.09,6.95,18.06,6.02,24.54s-17.13,18.52-35.65,18.98c-18.52.46-31.95-8.33-38.43-31.95-6.48-23.62-3.91-59.65-3.91-59.65,0,0,2.35-10.59,5.88-12.95"/>
          <g class="cls-17">
            <path class="cls-18" d="m310.94,418.78c.93-6.48-1.39-19.45-6.02-24.54-.19-.2-.4-.39-.61-.58.38,2.63.81,6.69,1.01,12.54.91,27.18-37.06,22.63-44.72,2.94-4.12-10.59-5.3-57.08-17.65-60.61-7.12-2.04-9.55,3.55-10.33,8.66-.24,13.34.19,33.88,4.24,48.64,6.48,23.61,19.91,32.41,38.43,31.95,18.52-.46,34.73-12.5,35.65-18.98Z"/>
          </g>
          <path class="cls-5" d="m252.13,325.25c10.19-3.7,23.15-1.39,27.78,11.58,4.63,12.97,8.8,50.93,8.8,50.93,0,0,11.58,1.39,16.21,6.48,4.63,5.09,6.95,18.06,6.02,24.54s-17.13,18.52-35.65,18.98c-18.52.46-31.95-8.33-38.43-31.95-6.48-23.62-3.91-59.65-3.91-59.65,0,0,2.35-10.59,5.88-12.95"/>
        </g>
      </g>
      <path class="cls-5" d="m288.71,387.76s3.61,16.87-14.98,26.16"/>
    </g>
  </g>
  <g>
    <path class="cls-14" d="m448.09,380.89c0-4.7.69-8.57,2.08-11.61s3.21-5.3,5.45-6.79,4.96-2.23,8.15-2.23c4.63,0,8.4,1.77,11.31,5.3s4.37,8.56,4.37,15.09-1.54,11.75-4.63,15.46c-2.71,3.28-6.38,4.92-11.03,4.92s-8.37-1.62-11.08-4.87c-3.08-3.71-4.63-8.8-4.63-15.28Zm6.72-.27c0,4.54.86,7.94,2.59,10.21,1.72,2.27,3.86,3.4,6.41,3.4s4.7-1.12,6.38-3.38,2.53-5.71,2.53-10.37-.82-7.95-2.46-10.14-3.79-3.28-6.45-3.28-4.82,1.1-6.49,3.31c-1.67,2.21-2.5,5.62-2.5,10.25Z"/>
    <path class="cls-14" d="m483.24,380.89c0-4.7.69-8.57,2.08-11.61s3.21-5.3,5.45-6.79,4.96-2.23,8.15-2.23c4.63,0,8.4,1.77,11.31,5.3s4.37,8.56,4.37,15.09-1.54,11.75-4.63,15.46c-2.71,3.28-6.38,4.92-11.03,4.92s-8.37-1.62-11.08-4.87c-3.08-3.71-4.63-8.8-4.63-15.28Zm6.72-.27c0,4.54.86,7.94,2.59,10.21,1.72,2.27,3.86,3.4,6.41,3.4s4.7-1.12,6.38-3.38,2.53-5.71,2.53-10.37-.82-7.95-2.46-10.14-3.79-3.28-6.45-3.28-4.82,1.1-6.49,3.31c-1.67,2.21-2.5,5.62-2.5,10.25Z"/>
    <path class="cls-14" d="m519.71,400.37v-39.43h10.49c3.91,0,6.46.19,7.67.57,1.92.61,3.5,1.91,4.75,3.9s1.87,4.55,1.87,7.69c0,2.85-.54,5.24-1.61,7.17-1.08,1.93-2.42,3.28-4.03,4.06-1.61.78-4.39,1.17-8.34,1.17h-4.28v14.87h-6.51Zm6.51-32.76v11.22h3.61c2.43,0,4.08-.17,4.95-.51.87-.34,1.59-.96,2.14-1.85s.84-1.98.84-3.28-.29-2.42-.86-3.32-1.29-1.5-2.13-1.81-2.63-.46-5.36-.46h-3.18Z"/>
    <path class="cls-14" d="m548.2,387.51l6.38-.75c.72,5.04,3.07,7.56,7.05,7.56,1.97,0,3.52-.52,4.65-1.55,1.13-1.03,1.69-2.31,1.69-3.83,0-.9-.2-1.66-.59-2.29-.4-.63-1-1.14-1.8-1.55s-2.76-1.08-5.86-2.03c-2.78-.84-4.81-1.75-6.11-2.74s-2.32-2.28-3.08-3.88c-.76-1.6-1.14-3.33-1.14-5.17,0-2.15.49-4.08,1.47-5.8s2.33-3.02,4.05-3.9,3.85-1.32,6.37-1.32c3.8,0,6.77,1.03,8.9,3.09,2.13,2.06,3.26,5.01,3.39,8.85l-6.54.35c-.29-2.12-.91-3.6-1.86-4.44s-2.3-1.26-4.06-1.26-3.11.37-4.06,1.1c-.95.73-1.42,1.65-1.42,2.74s.43,1.98,1.29,2.71c.86.73,2.84,1.54,5.95,2.42,3.28.95,5.65,1.95,7.11,3,1.46,1.05,2.58,2.4,3.35,4.06.77,1.66,1.16,3.67,1.16,6.04,0,3.42-1.05,6.3-3.16,8.63-2.11,2.33-5.4,3.5-9.88,3.5-7.93,0-12.34-4.51-13.23-13.53Z"/>
  </g>
</svg>